<svg width="902" height="268" xmlns="http://www.w3.org/2000/svg">
 <defs>
  <clipPath id="clippath">
   <rect id="svg_1" fill="none" height="182.55" width="722.97" y="105.19942" x="240.26986" class="cls-2"/>
  </clipPath>
 </defs>
 <g>
  <title>Layer 1</title>
  <g id="svg_57">
   <g id="svg_2">
    <path id="svg_3" fill="#24a1ba" d="m259.36986,219.36268c1.75,-3.18 4.15,-5.65 7.2,-7.43c3.04,-1.77 6.43,-2.66 10.18,-2.66c4.56,0 8.47,1.08 11.73,3.25c3.26,2.17 5.62,5.22 7.11,9.16l-4.8,0c-1.17,-2.77 -2.95,-4.93 -5.35,-6.49s-5.29,-2.34 -8.69,-2.34c-3,0 -5.7,0.7 -8.1,2.11s-4.28,3.42 -5.64,6.05c-1.37,2.63 -2.05,5.68 -2.05,9.15s0.68,6.51 2.05,9.13c1.36,2.61 3.25,4.62 5.64,6.03s5.1,2.11 8.1,2.11c3.39,0 6.29,-0.77 8.69,-2.31c2.4,-1.54 4.18,-3.67 5.35,-6.41l4.8,0c-1.48,3.9 -3.86,6.92 -7.14,9.07c-3.28,2.15 -7.18,3.22 -11.7,3.22c-3.74,0 -7.14,-0.89 -10.18,-2.66c-3.04,-1.77 -5.44,-4.24 -7.2,-7.4c-1.75,-3.16 -2.63,-6.75 -2.63,-10.76s0.88,-7.61 2.63,-10.79l0,-0.03z" class="cls-3"/>
    <path id="svg_4" fill="#24a1ba" d="m333.51986,219.62268c1.93,1.01 3.45,2.56 4.56,4.65c1.11,2.09 1.67,4.63 1.67,7.63l0,18.72l-4.04,0l0,-18.25c0,-3.47 -0.87,-6.12 -2.6,-7.96c-1.74,-1.83 -4.1,-2.75 -7.11,-2.75s-5.54,0.97 -7.37,2.92c-1.83,1.95 -2.75,4.82 -2.75,8.6l0,17.43l-4.09,0l0,-43.29l4.09,0l0,16.79c1.01,-1.91 2.51,-3.39 4.48,-4.45c1.97,-1.05 4.18,-1.58 6.64,-1.58s4.59,0.51 6.52,1.52l0,0.02z" class="cls-3"/>
    <path id="svg_5" fill="#24a1ba" d="m356.96986,225.97268c1.31,-2.48 3.12,-4.39 5.44,-5.73c2.32,-1.35 4.94,-2.02 7.87,-2.02s5.66,0.7 7.87,2.11s3.79,3.2 4.77,5.38l0,-7.02l4.09,0l0,31.94l-4.09,0l0,-7.08c-1.01,2.18 -2.62,3.99 -4.83,5.41c-2.2,1.42 -4.83,2.13 -7.87,2.13s-5.49,-0.68 -7.81,-2.05c-2.32,-1.37 -4.13,-3.29 -5.44,-5.79c-1.31,-2.5 -1.96,-5.38 -1.96,-8.66s0.65,-6.15 1.96,-8.63l0,0.01zm24.36,1.9c-1.05,-1.95 -2.49,-3.45 -4.3,-4.5s-3.81,-1.58 -6,-1.58s-4.29,0.51 -6.08,1.52c-1.79,1.01 -3.21,2.49 -4.24,4.42c-1.03,1.93 -1.55,4.22 -1.55,6.87s0.52,4.9 1.55,6.87c1.03,1.97 2.45,3.47 4.24,4.5c1.79,1.03 3.82,1.55 6.08,1.55s4.18,-0.53 6,-1.58s3.25,-2.55 4.3,-4.5c1.05,-1.95 1.58,-4.21 1.58,-6.79s-0.53,-4.83 -1.58,-6.79l0,0.01z" class="cls-3"/>
    <path id="svg_6" fill="#24a1ba" d="m428.77986,221.64268c2.42,2.36 3.63,5.78 3.63,10.27l0,18.72l-4.04,0l0,-18.25c0,-3.47 -0.87,-6.12 -2.6,-7.96c-1.74,-1.83 -4.1,-2.75 -7.11,-2.75s-5.54,0.97 -7.37,2.92c-1.83,1.95 -2.75,4.82 -2.75,8.6l0,17.43l-4.09,0l0,-31.94l4.09,0l0,5.44c1.01,-1.95 2.48,-3.44 4.39,-4.48c1.91,-1.03 4.07,-1.55 6.49,-1.55c3.82,0 6.94,1.18 9.36,3.54l0,0.01z" class="cls-3"/>
    <path id="svg_7" fill="#24a1ba" d="m470.77986,220.32268c2.22,1.4 3.82,3.18 4.8,5.32l0,-6.96l4.09,0l0,32.76c0,2.92 -0.63,5.52 -1.9,7.78c-1.27,2.26 -3.03,4.01 -5.29,5.24c-2.26,1.23 -4.84,1.84 -7.72,1.84c-4.1,0 -7.5,-0.98 -10.21,-2.92c-2.71,-1.95 -4.4,-4.6 -5.06,-7.96l4.04,0c0.7,2.22 2.04,4 4.01,5.32c1.97,1.33 4.38,1.99 7.22,1.99c2.07,0 3.92,-0.44 5.56,-1.32c1.64,-0.88 2.92,-2.17 3.86,-3.89c0.94,-1.72 1.4,-3.74 1.4,-6.08l0,-7.9c-1.01,2.18 -2.62,3.99 -4.83,5.41c-2.2,1.42 -4.81,2.13 -7.81,2.13s-5.55,-0.68 -7.87,-2.05c-2.32,-1.37 -4.13,-3.29 -5.44,-5.79c-1.31,-2.5 -1.96,-5.38 -1.96,-8.66s0.65,-6.15 1.96,-8.63c1.31,-2.48 3.12,-4.39 5.44,-5.73c2.32,-1.35 4.94,-2.02 7.87,-2.02s5.62,0.7 7.84,2.11l0,0.01zm3.22,7.55c-1.05,-1.95 -2.49,-3.45 -4.3,-4.5s-3.81,-1.58 -6,-1.58s-4.29,0.51 -6.08,1.52c-1.79,1.01 -3.21,2.49 -4.24,4.42c-1.03,1.93 -1.55,4.22 -1.55,6.87s0.52,4.9 1.55,6.87c1.03,1.97 2.45,3.47 4.24,4.5c1.79,1.03 3.82,1.55 6.08,1.55s4.18,-0.53 6,-1.58s3.25,-2.55 4.3,-4.5c1.05,-1.95 1.58,-4.21 1.58,-6.79s-0.53,-4.83 -1.58,-6.79l0,0.01z" class="cls-3"/>
    <path id="svg_8" fill="#24a1ba" d="m525.87986,236.23268l-26.5,0c0.12,2.42 0.7,4.49 1.75,6.2c1.05,1.72 2.44,3.01 4.15,3.89c1.72,0.88 3.59,1.32 5.62,1.32c2.65,0 4.88,-0.64 6.7,-1.93s3.01,-3.02 3.6,-5.21l4.33,0c-0.78,3.12 -2.45,5.67 -5,7.63c-2.55,1.97 -5.76,2.95 -9.62,2.95c-3,0 -5.69,-0.67 -8.07,-2.02c-2.38,-1.35 -4.24,-3.26 -5.59,-5.73c-1.35,-2.48 -2.02,-5.37 -2.02,-8.69s0.66,-6.22 1.99,-8.72c1.33,-2.5 3.18,-4.41 5.56,-5.73c2.38,-1.33 5.09,-1.99 8.13,-1.99s5.7,0.66 7.98,1.99c2.28,1.33 4.04,3.11 5.27,5.35c1.23,2.24 1.84,4.73 1.84,7.46c0,1.4 -0.04,2.48 -0.12,3.22l0,0.01zm-5.47,-9.42c-0.99,-1.68 -2.35,-2.94 -4.07,-3.8c-1.72,-0.86 -3.59,-1.29 -5.62,-1.29c-3.04,0 -5.64,0.97 -7.78,2.92s-3.33,4.7 -3.57,8.25l22.46,0c0.04,-2.38 -0.44,-4.41 -1.43,-6.08l0.01,0z" class="cls-3"/>
    <path id="svg_9" fill="#24a1ba" d="m570.97986,222.13268l0,19.83c0,1.95 0.37,3.3 1.11,4.04c0.74,0.74 2.05,1.11 3.92,1.11l3.74,0l0,3.51l-4.39,0c-2.89,0 -5.03,-0.67 -6.43,-2.02c-1.4,-1.34 -2.11,-3.56 -2.11,-6.64l0,-19.83l-4.45,0l0,-3.45l4.45,0l0,-8.01l4.15,0l0,8.01l8.77,0l0,3.45l-8.77,0l0.01,0z" class="cls-3"/>
    <path id="svg_10" fill="#24a1ba" d="m616.28986,219.62268c1.93,1.01 3.45,2.56 4.56,4.65c1.11,2.09 1.67,4.63 1.67,7.63l0,18.72l-4.04,0l0,-18.25c0,-3.47 -0.87,-6.12 -2.6,-7.96c-1.74,-1.83 -4.1,-2.75 -7.11,-2.75s-5.54,0.97 -7.37,2.92c-1.83,1.95 -2.75,4.82 -2.75,8.6l0,17.43l-4.09,0l0,-43.29l4.09,0l0,16.79c1.01,-1.91 2.51,-3.39 4.48,-4.45c1.97,-1.05 4.18,-1.58 6.64,-1.58s4.59,0.51 6.52,1.52l0,0.02z" class="cls-3"/>
    <path id="svg_11" fill="#24a1ba" d="m668.43986,236.23268l-26.5,0c0.12,2.42 0.7,4.49 1.75,6.2c1.05,1.72 2.44,3.01 4.15,3.89c1.72,0.88 3.59,1.32 5.62,1.32c2.65,0 4.88,-0.64 6.7,-1.93s3.01,-3.02 3.6,-5.21l4.33,0c-0.78,3.12 -2.45,5.67 -5,7.63c-2.55,1.97 -5.76,2.95 -9.62,2.95c-3,0 -5.69,-0.67 -8.07,-2.02c-2.38,-1.35 -4.24,-3.26 -5.59,-5.73c-1.35,-2.48 -2.02,-5.37 -2.02,-8.69s0.66,-6.22 1.99,-8.72c1.33,-2.5 3.18,-4.41 5.56,-5.73c2.38,-1.33 5.09,-1.99 8.13,-1.99s5.7,0.66 7.98,1.99c2.28,1.33 4.04,3.11 5.27,5.35c1.23,2.24 1.84,4.73 1.84,7.46c0,1.4 -0.04,2.48 -0.12,3.22l0,0.01zm-5.47,-9.42c-0.99,-1.68 -2.35,-2.94 -4.07,-3.8c-1.72,-0.86 -3.59,-1.29 -5.62,-1.29c-3.04,0 -5.64,0.97 -7.78,2.92s-3.33,4.7 -3.57,8.25l22.46,0c0.04,-2.38 -0.44,-4.41 -1.43,-6.08l0.01,0z" class="cls-3"/>
    <path id="svg_12" fill="#24a1ba" d="m757.81986,209.73268l-11.58,40.89l-4.56,0l-10.3,-34.86l-10.53,34.86l-4.45,0.06l-11.35,-40.95l4.39,0l9.36,35.86l10.47,-35.86l4.56,0l10.18,35.86l9.42,-35.86l4.39,0z" class="cls-3"/>
    <path id="svg_13" fill="#24a1ba" d="m778.02986,249.07268c-2.4,-1.35 -4.29,-3.26 -5.67,-5.73c-1.38,-2.48 -2.08,-5.37 -2.08,-8.69s0.7,-6.21 2.11,-8.69c1.4,-2.48 3.31,-4.39 5.73,-5.73s5.13,-2.02 8.13,-2.02s5.72,0.67 8.16,2.02c2.44,1.35 4.35,3.26 5.73,5.73c1.38,2.48 2.08,5.37 2.08,8.69s-0.7,6.16 -2.11,8.66c-1.4,2.5 -3.33,4.42 -5.79,5.76c-2.46,1.34 -5.19,2.02 -8.19,2.02s-5.7,-0.67 -8.1,-2.02zm13.95,-2.98c1.79,-0.96 3.25,-2.4 4.36,-4.33c1.11,-1.93 1.67,-4.3 1.67,-7.11s-0.55,-5.18 -1.64,-7.11s-2.54,-3.37 -4.33,-4.33c-1.79,-0.96 -3.74,-1.43 -5.85,-1.43s-4.06,0.48 -5.85,1.43c-1.79,0.96 -3.23,2.4 -4.3,4.33c-1.07,1.93 -1.61,4.3 -1.61,7.11s0.54,5.18 1.61,7.11c1.07,1.93 2.5,3.37 4.27,4.33c1.77,0.96 3.71,1.43 5.82,1.43s4.05,-0.48 5.85,-1.43z" class="cls-3"/>
    <path id="svg_14" fill="#24a1ba" d="m825.99986,219.74268c1.85,-1.09 4.12,-1.64 6.82,-1.64l0,4.27l-1.11,0c-2.96,0 -5.34,0.8 -7.14,2.4c-1.79,1.6 -2.69,4.27 -2.69,8.01l0,17.84l-4.09,0l0,-31.94l4.09,0l0,5.67c0.9,-1.99 2.27,-3.53 4.12,-4.62l0,0.01z" class="cls-3"/>
    <path id="svg_15" fill="#24a1ba" d="m851.11986,207.33268l0,43.29l-4.09,0l0,-43.29l4.09,0z" class="cls-3"/>
    <path id="svg_16" fill="#24a1ba" d="m868.60986,225.97268c1.33,-2.48 3.15,-4.39 5.47,-5.73c2.32,-1.35 4.94,-2.02 7.87,-2.02s5.34,0.68 7.61,2.05c2.26,1.37 3.92,3.14 4.97,5.32l0,-18.25l4.09,0l0,43.29l-4.09,0l0,-7.14c-0.97,2.22 -2.57,4.05 -4.8,5.47c-2.22,1.42 -4.84,2.13 -7.84,2.13s-5.55,-0.68 -7.87,-2.05c-2.32,-1.37 -4.13,-3.29 -5.44,-5.79c-1.31,-2.5 -1.96,-5.38 -1.96,-8.66s0.66,-6.15 1.99,-8.63l0,0.01zm24.33,1.9c-1.05,-1.95 -2.49,-3.45 -4.3,-4.5s-3.81,-1.58 -6,-1.58s-4.29,0.51 -6.08,1.52c-1.79,1.01 -3.21,2.49 -4.24,4.42c-1.03,1.93 -1.55,4.22 -1.55,6.87s0.52,4.9 1.55,6.87c1.03,1.97 2.45,3.47 4.24,4.5c1.79,1.03 3.82,1.55 6.08,1.55s4.18,-0.53 6,-1.58s3.25,-2.55 4.3,-4.5c1.05,-1.95 1.58,-4.21 1.58,-6.79s-0.53,-4.83 -1.58,-6.79l0,0.01z" class="cls-3"/>
   </g>
   <rect id="svg_17" fill="none" height="182.55" width="722.97" y="65.53268" x="242.56986" class="cls-2"/>
   <path id="svg_18" d="m378.08986,116.20268l0,-14.31l14.03,0l0,14.31l-14.03,0zm14.03,80.25l0,-74.03l-14.03,0l0,74.03l14.03,0z"/>
   <rect id="svg_19" height="76.77" width="16.77" y="121.04268" x="376.71986"/>
   <rect id="svg_20" height="17.42" width="16.77" y="100.68268" x="376.71986"/>
   <g id="svg_21">
    <path id="svg_22" d="m324.60986,101.88268l14.03,14.17l0,13.59l-14.03,0l0,-6.94l-6.92,-6.65l-39.22,0l-6.92,6.65l0,53.07l6.92,7.09l39.22,0l6.92,-7.12l0,-19.63l-39.18,0l0,-13.59l53.21,0l0,40.34l-13.88,13.59l-53.21,0l-14.03,-13.59l0,-66.8l13.88,-14.17l53.21,0l0,-0.01z"/>
    <path id="svg_23" d="m325.30986,197.82268l-54.33,0l-14.84,-14.38l0,-67.94l14.68,-14.98l54.36,0l14.82,14.98l0,15.53l-16.77,0l0,-7.73l-6.1,-5.86l-38.12,0l-6.1,5.86l0,51.92l6.13,6.27l38.06,0l6.13,-6.31l0,-17.7l-39.18,0l0,-16.33l55.95,0l0,42.29l-14.69,14.39l0,-0.01zm-53.21,-2.74l52.09,0l13.07,-12.8l0,-38.39l-50.47,0l0,10.85l39.18,0l0,21.55l-7.71,7.94l-40.38,0l-7.72,-7.9l0,-54.21l7.74,-7.44l40.32,0l7.74,7.44l0,6.15l11.28,0l0,-11.66l-13.23,-13.36l-52.06,0l-13.09,13.36l0,65.66l13.21,12.8l0.03,0.01z"/>
   </g>
   <rect id="svg_24" height="71.29" width="11.28" y="123.78268" x="379.45986"/>
   <rect id="svg_25" height="11.81" width="11.28" y="103.49268" x="380.98986"/>
   <g id="svg_26">
    <path id="svg_27" d="m502.45986,116.20268l0,58.82l-0.14,0l0.14,0.14l-21.73,21.29l-27.82,0l-21.73,-21.32l0,-58.93l14.03,0l0,52.2l14.89,14.75l12.72,0l15.47,-15.33l0.14,0.14l0,-51.76l14.03,0z"/>
    <path id="svg_28" d="m481.27986,197.82268l-28.94,0l-22.54,-22.12l0,-60.87l16.77,0l0,53l14.09,13.95l11.6,0l14.81,-14.67l0,-52.28l16.77,0l0,60.91l-0.66,0.65l-21.88,21.43l-0.02,0zm-27.82,-2.74l26.7,0l20.34,-19.92l-1.51,-1.51l2.08,0l0,-56.08l-11.28,0l0,53.7l-1.52,-1.52l-14.9,14.76l-13.85,0l-15.7,-15.55l0,-51.4l-11.28,0l0,56.98l20.92,20.53l0,0.01z"/>
   </g>
   <g id="svg_29" clip-path="url(#clippath)" class="cls-1">
    <g id="svg_30">
     <path id="svg_31" fill="#24a1ba" d="m599.18986,116.20268l14.03,13.59l0,66.66l-57.4,0l-13.88,-13.59l0,-26.51l13.88,-13.83l43.38,0l0,-5.78l-6.94,-6.94l-43.38,0l0,-13.59l50.32,0l-0.01,-0.01zm0,66.66l0,-26.75l-36.44,0l-6.94,6.98l0,12.65l6.94,7.12l36.44,0z" class="cls-3"/>
     <path id="svg_32" fill="#24a1ba" d="m614.57986,197.82268l-59.33,0l-14.69,-14.39l0,-27.66l14.69,-14.63l42.57,0l0,-3.84l-6.14,-6.14l-44.18,0l0,-16.33l52.25,0l14.84,14.38l0,68.61l-0.01,0zm-58.21,-2.74l55.47,0l0,-64.71l-13.21,-12.8l-48.39,0l0,10.85l42.58,0l7.74,7.74l0,7.72l-44.18,0l-13.08,13.03l0,25.37l13.07,12.8zm44.19,-10.85l-38.39,0l-7.73,-7.94l0,-13.77l7.74,-7.78l38.38,0l0,29.49zm-37.23,-2.74l34.49,0l0,-24.01l-34.5,0l-6.14,6.17l0,11.52l6.15,6.31l0,0.01z" class="cls-3"/>
    </g>
   </g>
   <g id="svg_33">
    <path id="svg_34" d="m719.51986,101.88268l13.91,14.17l0,26.46l-6.94,6.8l6.94,6.8l0,26.75l-14.03,13.59l-67.09,0l0,-94.56l67.21,0l0,-0.01zm-0.12,33.65l0,-12.79l-6.92,-6.69l-46.14,0l0,26.46l46.14,0l6.92,-6.98zm-6.92,47.32l6.92,-7.12l0,-12.65l-6.92,-6.98l-46.14,0l0,26.75l46.14,0z"/>
    <path id="svg_35" d="m719.95986,197.82268l-69.02,0l0,-97.31l69.16,0l14.7,14.98l0,27.6l-6.35,6.22l6.35,6.22l0,27.91l-14.84,14.38zm-66.28,-2.74l65.17,0l13.21,-12.8l0,-25.59l-7.53,-7.37l7.53,-7.37l0,-25.32l-13.11,-13.36l-65.27,0l0,91.82l0,-0.01zm59.38,-10.85l-48.09,0l0,-29.49l48.08,0l7.72,7.79l0,13.77l-7.71,7.94l0,-0.01zm-45.35,-2.74l44.19,0l6.13,-6.31l0,-11.53l-6.12,-6.17l-44.2,0l0,24.01zm45.34,-37.6l-48.08,0l0,-29.2l48.07,0l7.74,7.48l0,13.94l-7.72,7.79l-0.01,-0.01zm-45.34,-2.74l44.2,0l6.12,-6.17l0,-11.65l-6.11,-5.9l-44.22,0l0,23.72l0.01,0z"/>
   </g>
   <g id="svg_36">
    <path id="svg_37" d="m772.62986,116.20268l0,-14.31l14.03,0l0,14.31l-14.03,0zm14.03,80.25l0,-74.03l-14.03,0l0,74.03l14.03,0z"/>
    <path id="svg_38" d="m788.02986,197.82268l-16.77,0l0,-76.77l16.77,0l0,76.77zm-14.03,-2.74l11.28,0l0,-71.29l-11.28,0l0,71.29zm14.03,-77.51l-16.77,0l0,-17.06l16.77,0l0,17.06zm-14.03,-2.74l11.28,0l0,-11.57l-11.28,0l0,11.57z"/>
   </g>
   <g id="svg_39">
    <path id="svg_40" d="m897.24986,129.79268l-57.26,0l0,46l6.94,7.07l50.32,0l0,13.59l-57.26,0l-14.03,-13.59l0,-80.97l14.03,0l0,14.31l57.26,0l0,13.59z"/>
    <path id="svg_41" d="m898.61986,197.82268l-59.19,0l-14.84,-14.38l0,-82.93l16.77,0l0,14.31l57.26,0l0,16.33l-57.26,0l0,44.07l6.14,6.26l51.11,0l0,16.33l0.01,0.01zm-58.07,-2.74l55.33,0l0,-10.85l-49.52,0l-7.74,-7.88l0,-47.93l57.26,0l0,-10.85l-57.26,0l0,-14.31l-11.28,0l0,79.02l13.21,12.8z"/>
   </g>
   <rect id="svg_42" fill="none" height="182.55" width="722.97" y="65.53268" x="242.56986" class="cls-2"/>
   <polygon id="svg_43" points="126.92000579833984,100.52189636230469 126.92000579833984,117.49187469482422 36.08985137939453,117.49187469482422 49.16985321044922,100.52189636230469 126.92000579833984,100.52189636230469 "/>
   <rect id="svg_44" height="16.97" width="29.65" y="120.50268" x="35.38986"/>
   <rect id="svg_45" height="16.97" width="29.65" y="161.28268" x="155.85986"/>
   <g id="svg_46">
    <path id="svg_47" d="m190.35986,56.78268c-18.87,-30.54 -44.34,-49.06 -71.74,-52.16c-2.18,-0.4 -4.6,-0.6 -7.21,-0.6c-3.87,0 -7.03,0.44 -7.99,0.59c-27.45,3.07 -52.96,21.59 -71.86,52.18c-17.28,27.96 -27.19,63.2 -27.19,96.69s10.58,59.5 30.6,79.67c17.82,17.95 42.17,28.96 68.6,31.02c2.26,0.33 4.89,0.29 7.41,0.29c3.6,0 6.23,-0.13 7.32,-0.29c26.45,-2.05 50.82,-13.07 68.65,-31.02c20.02,-20.17 30.6,-47.72 30.6,-79.67s-9.91,-68.72 -27.19,-96.69l0,-0.01zm-73.45,192.58l-0.31,0.02l-0.27,0.04s0,0 0,0c-3.37,0.25 -11.06,-0.05 -11.06,-0.05l-0.27,-0.02c-0.35,-0.03 -0.71,-0.06 -1.06,-0.09c-42.28,-3.65 -84.57,-34.55 -84.57,-95.8c0,-30.82 9.11,-63.23 24.98,-88.92c16.47,-26.65 38.1,-42.7 60.92,-45.19l0.21,-0.02l0.19,-0.03s0.03,0 0.07,-0.01c2.51,-0.2 6.47,-0.38 10.41,-0.01l0.09,0.02l0.3,0.05l0.16,0.02c22.81,2.49 44.44,18.54 60.9,45.19c15.88,25.69 24.98,58.1 24.98,88.92c0,61.77 -43.02,92.67 -85.65,95.89l-0.02,-0.01z"/>
    <path id="svg_48" d="m109.59986,265.94268c-2.13,0 -4.29,-0.03 -6.25,-0.31c-26.68,-2.07 -51.38,-13.25 -69.45,-31.45c-20.3,-20.46 -31.04,-48.37 -31.04,-80.72s9.99,-69.28 27.41,-97.47c19.15,-30.98 45.06,-49.76 72.97,-52.88c0.86,-0.13 4.16,-0.59 8.16,-0.59c2.68,0 5.17,0.21 7.43,0.62c27.84,3.18 53.7,21.95 72.8,52.86l0,0c17.42,28.19 27.41,63.72 27.41,97.47s-10.73,60.27 -31.04,80.72c-18.07,18.21 -42.79,29.38 -69.6,31.46c-1.24,0.18 -4.12,0.29 -7.43,0.29l-0.69,0c-0.23,0 -0.46,0 -0.7,0l0.02,0zm1.81,-260.42c-3.79,0 -6.9,0.43 -7.76,0.57c-27.04,3.02 -52.17,21.3 -70.81,51.48c-17.14,27.73 -26.96,62.68 -26.96,95.9s10.43,58.73 30.17,78.61c17.56,17.69 41.58,28.55 67.65,30.58c2.05,0.29 4.36,0.29 6.61,0.29l0.69,0c3.81,0 6.21,-0.15 7.11,-0.27c26.18,-2.04 50.22,-12.9 67.79,-30.6c19.73,-19.88 30.17,-47.06 30.17,-78.61c0,-33.21 -9.83,-68.17 -26.96,-95.9l0,0c-18.62,-30.13 -43.71,-48.41 -70.64,-51.46l-0.1,0c-2.09,-0.4 -4.42,-0.59 -6.94,-0.59l-0.02,0zm1.11,245.51c-3.39,0 -7.1,-0.14 -7.32,-0.15l-0.33,-0.02c-0.36,-0.03 -0.72,-0.06 -1.07,-0.09c-42.78,-3.69 -85.95,-35.21 -85.95,-97.3c0,-31.09 9.19,-63.79 25.2,-89.71c16.72,-27.05 38.75,-43.35 62.03,-45.9l0.51,-0.07c2.66,-0.21 6.66,-0.38 10.67,-0.01l0.57,0.08c23.27,2.54 45.3,18.84 62.02,45.89c16.02,25.92 25.2,58.62 25.2,89.71c0,62.72 -43.72,94.11 -87.04,97.39l0,0s-0.07,0.07 -0.07,0.07l-0.57,0c-1.03,0.07 -2.41,0.1 -3.85,0.1l0,0.01zm-6.62,-230.25l-0.47,0.07c-22.36,2.44 -43.6,18.24 -59.82,44.49c-15.73,25.46 -24.76,57.58 -24.76,88.13c0,60.19 41.79,90.73 83.2,94.31c0.35,0.03 0.69,0.06 1.04,0.08l0.27,0.02s7.48,0.29 10.77,0.06l0.66,-0.07c41.94,-3.17 84.27,-33.59 84.27,-94.4c0,-30.55 -9.02,-62.67 -24.76,-88.13c-16.22,-26.25 -37.46,-42.05 -59.79,-44.49l-0.59,-0.08c-3.74,-0.34 -7.5,-0.18 -10.03,0.02l0.01,-0.01z"/>
   </g>
   <g id="svg_49">
    <circle id="svg_50" fill="#24a1ba" r="10.79" cy="60.66268" cx="84.18986" class="cls-3"/>
    <circle id="svg_51" fill="#24a1ba" r="10.79" cy="60.66268" cx="137.72986" class="cls-3"/>
   </g>
   <polygon id="svg_52" points="94.30010223388672,181.1820831298828 94.30010223388672,181.25193786621094 94.30010223388672,181.25193786621094 94.30010223388672,197.7522735595703 171.83029174804688,197.7522735595703 171.83029174804688,197.7522735595703 171.86029052734375,197.7522735595703 172.0902862548828,197.52227783203125 185.15997314453125,181.1820831298828 94.30010223388672,181.1820831298828 "/>
   <g id="svg_53">
    <rect transform="rotate(45 339.529 -356.247)" id="svg_54" fill="#24a1ba" height="18.22" width="18.22" y="139.65268" x="533.34986" class="cls-3"/>
    <rect transform="rotate(-45 -389.611 -75.4968)" id="svg_55" fill="#24a1ba" height="18.21" width="18.21" y="435.33269" x="-210.79012" class="cls-3"/>
    <rect transform="rotate(135 575.391 379.116)" id="svg_56" fill="#24a1ba" height="18.22" width="18.22" y="875.01271" x="739.25988" class="cls-3"/>
   </g>
  </g>
 </g>
</svg>