<svg xmlns="http://www.w3.org/2000/svg" width="60.87628870160387" height="45" version="1.1" style=""><rect id="backgroundrect" width="100%" height="100%" x="0" y="0" fill="none" stroke="none" style="" class=""/>
  <defs>
    <path id="path-0" d="M 274.544 33.591 C 282.977 63.374 308.646 62.291 326.437 61.656 C 335.103 59.907 340.748 56.738 345.765 49.212 C 349.344 40.349 352.913 33.106 352.913 28.031 C 355.297 21.672 371.446 23.38 371.446 17.176 C 367.853 17.176 365.826 12.085 363.768 10.028 C 361.054 9.763 359.281 5.541 357.679 3.938 C 355.643 -2.434 378.429 1.658 381.507 1.82 C 391.135 4.272 402.08 5.84 403.483 13.205 C 404.131 16.611 402.422 19.307 402.159 22.471 C 398.712 30.105 399.815 38.43 396.863 42.858 C 396.863 47.094 396.863 50.271 396.863 53.448 C 396.863 61.386 392.342 58.564 385.743 61.391 C 342.492 61.479 357.135 63.224 331.997 57.685 C 321.26 55.319 309.385 54.772 322.466 54.772 C 335.098 53.152 344.335 51.626 354.237 50.801 C 361.073 50.231 368.799 52.084 368.799 42.858 C 376.336 19.588 384.688 -7.182 374.094 -7.182 C 356.409 -1.329 365.644 10.918 373.564 19.559 L 377.801 22.207 C 379.388 23.476 381.068 24.237 382.831 25.119" style="fill: none;"/>
    <path id="path-9" d="M 266.071 38.092 C 295.584 46.803 315.729 51.514 337.557 54.243 C 344.156 55.068 353.492 57.05 360.326 55.302 C 365.186 54.059 368.19 50.997 372.241 48.683 L 373.035 47.888 C 374.223 46.403 374.439 44.591 375.418 43.123" style="fill: none;"/>
    <path id="path-3" d="M 473.521 332.777 L 480.492 337.424 C 496.516 351.445 512.13 358.339 532.391 358.339" style="fill: none;"/>
  </defs>
  <desc>Created with Fabric.js 5.2.4</desc>
  
<g class="currentLayer" style=""><title>Layer 1</title>
    
    
      
      
      
      <g id="svg_6" class="">
        <rect x="436.52115422169027" y="267.72941519305937" width="18" height="18" style="fill: rgb(36, 161, 186); paint-order: stroke;" transform="matrix(-0.707107,-0.707106,0.707106,-0.707107,149.849457,541.225098) " id="svg_7"/>
        <rect x="458.4131525127059" y="267.7324059157156" width="18" height="18" style="fill: rgb(36, 161, 186); paint-order: stroke;" transform="matrix(-0.707107,-0.707106,0.707106,-0.707107,149.849457,541.225098) " id="svg_8"/>
        <rect x="436.5331476298934" y="289.61042715595" width="18" height="18" style="fill: rgb(36, 161, 186); paint-order: stroke;" transform="matrix(-0.707107,-0.707106,0.707106,-0.707107,149.849457,541.225098) " id="svg_9"/>
        <path d="M27.724515476243923,14.943451246729182 C27.72466632024392,16.697451246729173 16.083925946243923,8.08945228672917 15.441056580243938,9.608507584729182 C14.799187300243915,11.128562796729199 16.627152728243924,10.726405588729165 15.478053828243919,9.576504402729173 C14.328955014243917,8.427603216729185 2.324666320243921,16.699635646729178 2.324515476243917,14.945635646729187 C2.3243647182439133,13.192635646729173 2.6802210122439067,11.521605030729177 3.3220903782439137,10.002549818729193 C3.964959658243913,8.482494520729176 4.894842010243906,7.114414540729172 6.043743196243923,5.965315726729187 C7.1926443822439134,4.816216912729174 8.560564402243912,3.8860992647291823 10.080509104243916,3.2429685447291963 C11.599453806243915,2.599837910729208 13.270423276243918,2.2446942047291714 15.023423276243918,2.244543446729182 C16.77742327624391,2.244392602729164 18.447453806243914,2.599248982729194 19.96650910424391,3.242118348729207 C21.486564402243914,3.884987628729192 22.854644382243904,4.814869980729185 24.003743196243903,5.963771166729189 C25.153842010243906,7.112672266729163 26.083959658243913,8.480592286729184 26.72609037824391,10.00053707472918 C27.369221012243912,11.519481776729181 27.724364632243926,13.189451246729163 27.724515476243923,14.943451246729182 " style="fill: rgb(36, 161, 186);" id="svg_10"/>
        <path d="M58.65851628224391,14.964450922729156 C58.65866712624393,16.71845092272916 47.01792675224391,8.11045196272918 46.375057386243896,9.629507260729184 C45.73318810624392,11.149562472729173 47.561153534243914,10.747405264729167 46.4120546342439,9.597504078729173 C45.26295582024392,8.448602892729184 33.25866712624392,16.72063532272915 33.25851628224392,14.96663532272916 C33.258365524243914,13.213635322729175 33.614221818243905,11.54260470672915 34.256091184243914,10.023549494729199 C34.89896046424391,8.503494196729179 35.828842816243906,7.135414216729182 36.97774400224391,5.986315402729192 C38.12664518824392,4.837216588729178 39.49456520824391,3.9070989407291847 41.01450991024393,3.263968220729169 C42.533454612243915,2.6208375867291815 44.20442408224392,2.2656938807291755 45.957424082243904,2.2655431227291847 C47.71142408224392,2.2653922787292022 49.381454612243914,2.620248658729167 50.900509910243926,3.263118024729181 C52.420565208243914,3.905987304729166 53.78864518824392,4.835869656729191 54.93774400224393,5.9847708427291835 C56.08784281624392,7.133671942729194 57.01796046424391,8.50159196272918 57.660091184243925,10.021536750729183 C58.30322181824391,11.540481452729153 58.65836543824392,13.210450922729201 58.65851628224391,14.964450922729156 " style="fill: rgb(36, 161, 186);" id="svg_11"/>
      </g>
      
      
    
  </g></svg>