<?xml version="1.0" encoding="utf-8"?>
<svg width="865" height="270" version="1.1" xmlns="http://www.w3.org/2000/svg">
  <defs>
    <path id="path-0" d="M 274.544 33.591 C 282.977 63.374 308.646 62.291 326.437 61.656 C 335.103 59.907 340.748 56.738 345.765 49.212 C 349.344 40.349 352.913 33.106 352.913 28.031 C 355.297 21.672 371.446 23.38 371.446 17.176 C 367.853 17.176 365.826 12.085 363.768 10.028 C 361.054 9.763 359.281 5.541 357.679 3.938 C 355.643 -2.434 378.429 1.658 381.507 1.82 C 391.135 4.272 402.08 5.84 403.483 13.205 C 404.131 16.611 402.422 19.307 402.159 22.471 C 398.712 30.105 399.815 38.43 396.863 42.858 C 396.863 47.094 396.863 50.271 396.863 53.448 C 396.863 61.386 392.342 58.564 385.743 61.391 C 342.492 61.479 357.135 63.224 331.997 57.685 C 321.26 55.319 309.385 54.772 322.466 54.772 C 335.098 53.152 344.335 51.626 354.237 50.801 C 361.073 50.231 368.799 52.084 368.799 42.858 C 376.336 19.588 384.688 -7.182 374.094 -7.182 C 356.409 -1.329 365.644 10.918 373.564 19.559 L 377.801 22.207 C 379.388 23.476 381.068 24.237 382.831 25.119" style="fill: none;"/>
    <path id="path-9" d="M 266.071 38.092 C 295.584 46.803 315.729 51.514 337.557 54.243 C 344.156 55.068 353.492 57.05 360.326 55.302 C 365.186 54.059 368.19 50.997 372.241 48.683 L 373.035 47.888 C 374.223 46.403 374.439 44.591 375.418 43.123" style="fill: none;"/>
    <path id="path-3" d="M 473.521 332.777 L 480.492 337.424 C 496.516 351.445 512.13 358.339 532.391 358.339" style="fill: none;"/>
  </defs>
  <desc>Created with Fabric.js 5.2.4</desc>
  <g>
    <rect stroke-width="0" id="svg_2" fill-rule=" nonzero" fill=" rgb(255,255,255)" stroke-miterlimit="4" stroke-linejoin=" miter" stroke-dashoffset="0" stroke-linecap=" butt" stroke-dasharray=" none" stroke=" none" height="273.626" width="868.7" style=""/>
    <g>
      <path id="path-11" fill-rule=" nonzero" stroke-linejoin=" miter" stroke-dashoffset="0" stroke-dasharray=" none" stroke-linecap=" butt" d="M 116.089 243.706 C 116.089 243.706 118.83 243.569 120.841 243.42 C 122.833 243.275 124.543 243.136 125.022 243.088 C 130.287 242.398 135.667 241.267 140.773 239.673 C 159.355 233.881 175.635 222.139 186.113 205.659 C 199.406 184.893 202.61 159.135 199.04 133.617 C 195.524 108.081 185.26 83.091 171.537 63.996 C 157.869 44.93 137.217 28.555 113.031 29.294 C 91.94 29.854 73.436 44.039 60.826 60.218 C 34.968 93.258 21.529 143.938 33.859 184.637 C 41.077 208.71 58.619 227.887 81.979 237.234 C 90.087 240.496 98.612 242.547 107.321 243.386 C 110.186 243.66 113.071 243.709 116.015 243.709 M 186.165 56.924 C 187.099 58.281 194.443 70.411 195.626 72.643 C 199.545 80.117 202.855 87.952 205.624 95.923 C 214.189 120.586 218.477 148.027 214.471 174.079 C 212.008 189.834 206.133 205.299 196.799 218.326 C 180.071 241.483 154.641 255.158 128.099 258.668 C 101.529 262.029 73.412 255.232 51.278 237.763 C 25.936 217.549 14.791 188.265 13.592 157.807 C 12.5 127.354 21.254 95.382 35.481 69.64 C 48.376 46.375 68.279 24.648 94.479 16.423 C 122.762 7.857 151.237 18.871 171.926 39.636 C 174.557 42.29 177.044 45.066 179.425 47.97 C 180.616 49.422 181.769 50.891 182.893 52.387 C 183.458 53.14 184.01 53.889 184.557 54.649 C 185.098 55.398 186.179 56.947 186.179 56.947" style="fill-rule: nonzero; stroke-miterlimit: 1; paint-order: stroke; stroke-width: 2.4px; stroke: rgb(0, 0, 0);"/>
      <g transform="matrix(1, 0, 0, 1, -20.124407, -80.793945)">
        <circle stroke-width="0" transform="matrix(1, 0, 0, 0.999999, 110.400002, 148.993866)" id="svg_46" fill-rule=" nonzero" fill=" rgb(36,161,186)" stroke-miterlimit="4" stroke-linejoin=" miter" stroke-dashoffset="0" stroke-linecap=" butt" stroke-dasharray=" none" stroke=" none" r="9" cx="-0.2" style=""/>
        <circle stroke-width="0" transform="matrix(1, 0, 0, 0.999999, 160.598755, 149.47287)" id="svg_49" fill-rule=" nonzero" fill=" rgb(36,161,186)" stroke-miterlimit="4" stroke-linejoin=" miter" stroke-dashoffset="0" stroke-linecap=" butt" stroke-dasharray=" none" stroke=" none" r="9" cy="-0.479" cx="-0.699" style=""/>
      </g>
      <g transform="matrix(1, 0, 0, 1, 0, 0.227003)">
        <rect stroke-width="0" id="svg_38" fill-rule=" nonzero" fill=" rgb(0,0,0)" stroke-miterlimit="4" stroke-linejoin=" miter" stroke-dashoffset="0" stroke-linecap=" butt" stroke-dasharray=" none" stroke=" none" height="18" width="28" y="130.6" x="52.575" style=""/>
        <path id="path-1" fill-rule=" evenodd" fill=" rgb(0,0,0)" stroke-miterlimit="4" stroke-linejoin=" miter" stroke-dashoffset="0" stroke-dasharray=" none" stroke-width="1.36063" stroke-linecap=" round" d="M 70.58 126.673 L 52.58 126.673 C 52.517 121.934 54.387 117.372 57.758 114.041 C 57.813 113.986 57.868 113.931 57.924 113.875 C 61.299 110.406 65.518 108.673 70.58 108.673 L 142.58 108.673 L 142.58 126.673 L 70.58 126.673 Z" style=""/>
      </g>
      <g>
        <rect x="284.374" y="234.676" width="18" height="18" style="fill: rgb(36, 161, 186); paint-order: stroke;" transform="matrix(-0.707107, -0.707106, 0.707106, -0.707107, 149.849457, 541.225098)"/>
        <rect x="306.266" y="234.679" width="18" height="18" style="fill: rgb(36, 161, 186); paint-order: stroke;" transform="matrix(-0.707107, -0.707106, 0.707106, -0.707107, 149.849457, 541.225098)"/>
        <rect x="284.386" y="256.557" width="18" height="18" style="fill: rgb(36, 161, 186); paint-order: stroke;" transform="matrix(-0.707107, -0.707106, 0.707106, -0.707107, 149.849457, 541.225098)"/>
        <path d="M 111.936 145.901 C 111.936 147.655 100.296 139.046 99.653 140.565 C 99.011 142.085 100.839 141.683 99.69 140.533 C 98.541 139.384 86.536 147.655 86.536 145.901 C 86.536 144.148 86.892 142.477 87.534 140.958 C 88.177 139.438 89.107 138.07 90.256 136.921 C 91.405 135.772 92.773 134.842 94.293 134.199 C 95.812 133.556 97.483 133.201 99.236 133.201 C 100.99 133.201 102.66 133.556 104.179 134.199 C 105.699 134.842 107.067 135.772 108.216 136.921 C 109.366 138.07 110.296 139.438 110.938 140.958 C 111.581 142.477 111.936 144.147 111.936 145.901" style="fill: rgb(36, 161, 186);" transform="matrix(1, -0.000086, 0.000086, 1, -0.012012, 0.008535)"/>
        <path d="M 142.87 145.922 C 142.87 147.676 131.23 139.067 130.587 140.586 C 129.945 142.106 131.773 141.704 130.624 140.554 C 129.475 139.405 117.47 147.676 117.47 145.922 C 117.47 144.169 117.826 142.498 118.468 140.979 C 119.111 139.459 120.041 138.091 121.19 136.942 C 122.339 135.793 123.707 134.863 125.227 134.22 C 126.746 133.577 128.417 133.222 130.17 133.222 C 131.924 133.222 133.594 133.577 135.113 134.22 C 136.633 134.863 138.001 135.793 139.15 136.942 C 140.3 138.091 141.23 139.459 141.872 140.979 C 142.515 142.498 142.87 144.168 142.87 145.922" style="fill: rgb(36, 161, 186);" transform="matrix(1, -0.000086, 0.000086, 1, -0.012013, 0.011195)"/>
      </g>
      <g transform="matrix(1, 0, 0, 1, 0, 0.199875)">
        <rect stroke-width="0" id="rect-1" fill-rule=" nonzero" stroke-miterlimit="4" stroke-linejoin=" miter" stroke-dashoffset="0" stroke-linecap=" butt" stroke-dasharray=" none" stroke=" none" height="18" width="28" y="127.424" x="43.395" style="" transform="matrix(-1, 0.000001, -0.000001, -1, 219.902725, 304.224091)"/>
        <path id="path-2" fill-rule=" evenodd" stroke-miterlimit="4" stroke-linejoin=" miter" stroke-dashoffset="0" stroke-dasharray=" none" stroke-width="1.36063" stroke-linecap=" round" d="M 104.503 198.726 L 86.503 198.726 C 86.44 193.987 88.31 189.426 91.681 186.095 C 91.736 186.039 91.791 185.984 91.847 185.928 C 95.222 182.46 99.441 180.726 104.503 180.726 L 176.503 180.726 L 176.503 198.726 L 104.503 198.726 Z" style="" transform="matrix(-1, 0.000001, -0.000001, -1, 263.004659, 379.451869)"/>
      </g>
      <path d="M 227.322 65.659 L 225.768 65.659 Q 229.706 61.739 231.251 57.792 Q 232.796 53.844 232.796 48.822 Q 232.796 43.04 230.998 39.156 Q 229.2 35.272 225.768 31.984 L 227.322 31.984 Q 232.922 36.41 235.469 40.412 Q 238.017 44.413 238.017 48.713 Q 238.017 53.067 235.56 57.042 Q 233.103 61.016 227.322 65.659 Z" transform="matrix(0, 1, -1, 0, 163.557938, -141.625916)" style="fill: rgb(204, 56, 53); white-space: pre;"/>
    </g>
    <g>
      <path d="M 273 180.922 L 327 180.922 L 327 162.922 L 291 162.922 L 291 144.922 L 345 144.922 L 345 180.922 Q 345 188.234 339.656 193.578 Q 334.453 198.922 327 198.922 L 273 198.922 Q 265.547 198.922 260.203 193.578 Q 255 188.375 255 180.922 L 255 126.922 Q 255 119.469 260.344 114.125 Q 265.406 108.922 273 108.922 L 345 108.922 L 345 126.922 L 273 126.922 Z" style="white-space: pre;"/>
      <path d="M 364.196 198.922 L 364.196 108.922 L 382.196 108.922 L 382.196 198.922 Z" style="white-space: pre;"/>
      <path d="M 447.381 198.922 Q 439.787 198.922 436.553 194.352 Q 433.318 189.781 429.381 180.922 L 401.397 108.922 L 419.397 108.922 L 447.381 180.922 L 473.397 108.922 L 491.397 108.922 L 465.381 180.922 Q 461.584 190.625 458.139 194.774 Q 454.693 198.922 447.381 198.922 Z" style="white-space: pre;"/>
      <path d="M 582.601 144.922 L 582.601 126.922 L 528.601 126.922 L 528.601 144.922 Z M 510.601 198.922 L 510.601 126.922 Q 510.601 119.469 515.805 114.266 Q 521.148 108.922 528.601 108.922 L 582.601 108.922 Q 590.055 108.922 595.258 114.266 Q 600.601 119.609 600.601 126.922 L 600.601 198.922 L 582.601 198.922 L 582.601 162.922 L 528.601 162.922 L 528.601 198.922 Z" style="white-space: pre; fill: rgb(36, 161, 186);"/>
      <path d="M 691.802 180.922 L 691.802 162.922 L 637.802 162.922 L 637.802 180.922 Z M 691.802 144.922 L 691.802 126.922 L 637.802 126.922 L 637.802 144.922 Z M 619.802 198.922 L 619.802 108.922 L 691.802 108.922 Q 699.255 108.922 704.458 114.266 Q 709.802 119.609 709.802 126.922 L 709.802 180.922 Q 709.802 188.516 704.458 193.719 Q 699.115 198.922 691.802 198.922 Z" style="white-space: pre;"/>
      <path d="M 728.998 198.922 L 728.998 108.922 L 746.998 108.922 L 746.998 198.922 Z" style="white-space: pre;"/>
      <path d="M 802.198 198.922 L 802.198 126.922 L 766.198 126.922 L 766.198 108.922 L 856.198 108.922 L 856.198 126.922 L 820.198 126.922 L 820.198 198.922 Z" style="white-space: pre;"/>
    </g>
  </g>
</svg>