<svg xmlns="http://www.w3.org/2000/svg" width="865" height="270" version="1.1" style=""><rect id="backgroundrect" width="100%" height="100%" x="0" y="0" fill="none" stroke="none"/>
  <defs>
    <path id="path-0" d="M 274.544 33.591 C 282.977 63.374 308.646 62.291 326.437 61.656 C 335.103 59.907 340.748 56.738 345.765 49.212 C 349.344 40.349 352.913 33.106 352.913 28.031 C 355.297 21.672 371.446 23.38 371.446 17.176 C 367.853 17.176 365.826 12.085 363.768 10.028 C 361.054 9.763 359.281 5.541 357.679 3.938 C 355.643 -2.434 378.429 1.658 381.507 1.82 C 391.135 4.272 402.08 5.84 403.483 13.205 C 404.131 16.611 402.422 19.307 402.159 22.471 C 398.712 30.105 399.815 38.43 396.863 42.858 C 396.863 47.094 396.863 50.271 396.863 53.448 C 396.863 61.386 392.342 58.564 385.743 61.391 C 342.492 61.479 357.135 63.224 331.997 57.685 C 321.26 55.319 309.385 54.772 322.466 54.772 C 335.098 53.152 344.335 51.626 354.237 50.801 C 361.073 50.231 368.799 52.084 368.799 42.858 C 376.336 19.588 384.688 -7.182 374.094 -7.182 C 356.409 -1.329 365.644 10.918 373.564 19.559 L 377.801 22.207 C 379.388 23.476 381.068 24.237 382.831 25.119" style="fill: none;"/>
    <path id="path-9" d="M 266.071 38.092 C 295.584 46.803 315.729 51.514 337.557 54.243 C 344.156 55.068 353.492 57.05 360.326 55.302 C 365.186 54.059 368.19 50.997 372.241 48.683 L 373.035 47.888 C 374.223 46.403 374.439 44.591 375.418 43.123" style="fill: none;"/>
    <path id="path-3" d="M 473.521 332.777 L 480.492 337.424 C 496.516 351.445 512.13 358.339 532.391 358.339" style="fill: none;"/>
  </defs>
  <desc>Created with Fabric.js 5.2.4</desc>
  
<g class="currentLayer" style=""><title>Layer 1</title>
    
    
    
  <g class="selected"><g id="svg_3" class="">
      <path id="path-11" fill-rule=" nonzero" stroke-linejoin=" miter" stroke-dashoffset="0" stroke-dasharray=" none" stroke-linecap=" butt" d="M116.76014090919494,243.03485909080504 C116.76014090919494,243.03485909080504 119.50114090919494,242.89785909080504 121.51214090919494,242.74885909080504 C123.50414090919494,242.60385909080506 125.21414090919495,242.46485909080505 125.69314090919495,242.41685909080505 C130.95814090919495,241.72685909080505 136.33814090919495,240.59585909080505 141.44414090919494,239.00185909080506 C160.02614090919494,233.20985909080505 176.30614090919494,221.46785909080506 186.78414090919495,204.98785909080505 C200.07714090919495,184.22185909080505 203.28114090919496,158.46385909080504 199.71114090919494,132.94585909080504 C196.19514090919495,107.40985909080506 185.93114090919494,82.41985909080505 172.20814090919495,63.324859090805056 C158.54014090919495,44.25885909080505 137.88814090919496,27.883859090805053 113.70214090919495,28.622859090805054 C92.61114090919494,29.182859090805053 74.10714090919495,43.367859090805055 61.49714090919495,59.54685909080506 C35.63914090919495,92.58685909080505 22.200140909194946,143.26685909080504 34.53014090919495,183.96585909080505 C41.748140909194944,208.03885909080506 59.290140909194946,227.21585909080505 82.65014090919495,236.56285909080506 C90.75814090919495,239.82485909080506 99.28314090919494,241.87585909080505 107.99214090919494,242.71485909080505 C110.85714090919495,242.98885909080505 113.74214090919494,243.03785909080506 116.68614090919495,243.03785909080506 M186.83614090919494,56.25285909080505 C187.77014090919494,57.60985909080505 195.11414090919496,69.73985909080506 196.29714090919495,71.97185909080505 C200.21614090919493,79.44585909080506 203.52614090919494,87.28085909080505 206.29514090919494,95.25185909080506 C214.86014090919494,119.91485909080505 219.14814090919495,147.35585909080504 215.14214090919495,173.40785909080506 C212.67914090919496,189.16285909080506 206.80414090919496,204.62785909080506 197.47014090919495,217.65485909080505 C180.74214090919494,240.81185909080506 155.31214090919494,254.48685909080504 128.77014090919494,257.99685909080506 C102.20014090919494,261.35785909080505 74.08314090919495,254.56085909080505 51.949140909194945,237.09185909080506 C26.607140909194946,216.87785909080506 15.462140909194947,187.59385909080504 14.263140909194947,157.13585909080504 C13.171140909194946,126.68285909080505 21.925140909194948,94.71085909080506 36.15214090919495,68.96885909080505 C49.047140909194944,45.703859090805054 68.95014090919494,23.976859090805053 95.15014090919495,15.751859090805056 C123.43314090919495,7.185859090805054 151.90814090919494,18.199859090805052 172.59714090919493,38.96485909080506 C175.22814090919493,41.61885909080505 177.71514090919496,44.394859090805056 180.09614090919496,47.29885909080505 C181.28714090919496,48.75085909080505 182.44014090919495,50.21985909080505 183.56414090919495,51.715859090805054 C184.12914090919494,52.468859090805054 184.68114090919494,53.21785909080506 185.22814090919493,53.977859090805055 C185.76914090919496,54.72685909080506 186.85014090919495,56.275859090805056 186.85014090919495,56.275859090805056 " style="fill-rule: nonzero; stroke-miterlimit: 1; paint-order: stroke; stroke-width: 2.4px; stroke: rgb(0, 0, 0);"/>
      <g id="svg_4">
        <circle stroke-width="0" transform="matrix(1,0,0,0.999999,90.275595,68.199921) " id="svg_46" fill-rule=" nonzero" fill=" rgb(36,161,186)" stroke-miterlimit="4" stroke-linejoin=" miter" stroke-dashoffset="0" stroke-linecap=" butt" stroke-dasharray=" none" stroke=" none" r="9" cx="0.47114090621471405" style="" cy="-0.6711415803365242"/>
        <circle stroke-width="0" transform="matrix(1,0,0,0.999999,140.47434800000002,68.678925) " id="svg_49" fill-rule=" nonzero" fill=" rgb(36,161,186)" stroke-miterlimit="4" stroke-linejoin=" miter" stroke-dashoffset="0" stroke-linecap=" butt" stroke-dasharray=" none" stroke=" none" r="9" cy="-1.1501415824823056" cx="-0.027859091758728027" style=""/>
      </g>
      <g id="svg_5">
        <rect stroke-width="0" id="svg_38" fill-rule=" nonzero" fill=" rgb(0,0,0)" stroke-miterlimit="4" stroke-linejoin=" miter" stroke-dashoffset="0" stroke-linecap=" butt" stroke-dasharray=" none" stroke=" none" height="18" width="28" y="129.92886519432068" x="53.2461416721344" style="" transform="matrix(1,0,0,1,0,0.227003) "/>
        <path id="path-1" fill-rule=" evenodd" fill=" rgb(0,0,0)" stroke-miterlimit="4" stroke-linejoin=" miter" stroke-dashoffset="0" stroke-dasharray=" none" stroke-width="1.36063" stroke-linecap=" round" d="M71.25114090919494,126.22886209080505 L53.251140909194945,126.22886209080505 C53.18814090919495,121.48986209080505 55.05814090919495,116.92786209080505 58.42914090919495,113.59686209080505 C58.48414090919495,113.54186209080505 58.53914090919495,113.48686209080505 58.595140909194946,113.43086209080505 C61.970140909194946,109.96186209080506 66.18914090919495,108.22886209080505 71.25114090919494,108.22886209080505 L143.25114090919496,108.22886209080505 L143.25114090919496,126.22886209080505 L71.25114090919494,126.22886209080505 z" style=""/>
      </g>
      <g id="svg_6">
        <rect x="284.3739922487803" y="235.62513182652503" width="18" height="18" style="fill: rgb(36, 161, 186); paint-order: stroke;" transform="matrix(-0.707107,-0.707106,0.707106,-0.707107,149.849457,541.225098) " id="svg_7"/>
        <rect x="306.26599053979595" y="235.62813780797035" width="18" height="18" style="fill: rgb(36, 161, 186); paint-order: stroke;" transform="matrix(-0.707107,-0.707106,0.707106,-0.707107,149.849457,541.225098) " id="svg_8"/>
        <rect x="284.38598565698345" y="257.50614378941566" width="18" height="18" style="fill: rgb(36, 161, 186); paint-order: stroke;" transform="matrix(-0.707107,-0.707106,0.707106,-0.707107,149.849457,541.225098) " id="svg_9"/>
        <path d="M112.60767639519496,145.22876759480505 C112.60782723919496,146.98276759480504 100.96708686519496,138.37476863480504 100.32421749919496,139.89382393280505 C99.68234821919495,141.41387914480507 101.51031364719495,141.01172193680503 100.36121474719495,139.86182075080504 C99.21211593319495,138.71291956480505 87.20782723919496,146.98495199480504 87.20767639519495,145.23095199480505 C87.20752563719495,143.47795199480504 87.56338193119494,141.80692137880504 88.20525129719495,140.28786616680506 C88.84812057719495,138.76781086880504 89.77800292919494,137.39973088880504 90.92690411519494,136.25063207480505 C92.07580530119495,135.10153326080504 93.44372532119495,134.17141561280505 94.96367002319495,133.52828489280506 C96.48261472519495,132.88515425880507 98.15358419519495,132.53001055280504 99.90658419519495,132.52985979480505 C101.66058419519494,132.52970895080503 103.33061472519495,132.88456533080506 104.84967002319495,133.52743469680507 C106.36972532119495,134.17030397680506 107.73780530119494,135.10018632880505 108.88690411519494,136.24908751480504 C110.03700292919494,137.39798861480503 110.96712057719495,138.76590863480504 111.60925129719494,140.28585342280505 C112.25238193119495,141.80479812480505 112.60752555119495,143.47476759480503 112.60767639519496,145.22876759480505 " style="fill: rgb(36, 161, 186);" id="svg_10"/>
        <path d="M143.54167720119494,145.24976727080502 C143.54182804519496,147.003767270805 131.90108767119494,138.39576831080504 131.25821830519493,139.91482360880505 C130.61634902519495,141.43487882080504 132.44431445319495,141.03272161280503 131.29521555319494,139.88282042680504 C130.14611673919495,138.73391924080505 118.14182804519496,147.00595167080502 118.14167720119495,145.25195167080503 C118.14152644319495,143.49895167080504 118.49738273719494,141.82792105480502 119.13925210319495,140.30886584280506 C119.78212138319495,138.78881054480505 120.71200373519494,137.42073056480504 121.86090492119494,136.27163175080506 C123.00980610719495,135.12253293680504 124.37772612719495,134.19241528880505 125.89767082919495,133.54928456880504 C127.41661553119495,132.90615393480505 129.08758500119495,132.55101022880504 130.84058500119494,132.55085947080505 C132.59458500119496,132.55070862680506 134.26461553119495,132.90556500680503 135.78367082919496,133.54843437280505 C137.30372612719495,134.19130365280503 138.67180610719495,135.12118600480505 139.82090492119497,136.27008719080504 C140.97100373519496,137.41898829080506 141.90112138319495,138.78690831080505 142.54325210319496,140.30685309880505 C143.18638273719495,141.82579780080502 143.54152635719495,143.49576727080503 143.54167720119494,145.24976727080502 " style="fill: rgb(36, 161, 186);" id="svg_11"/>
      </g>
      <g id="svg_12">
        <rect stroke-width="0" id="rect-1" fill-rule=" nonzero" stroke-miterlimit="4" stroke-linejoin=" miter" stroke-dashoffset="0" stroke-linecap=" butt" stroke-dasharray=" none" stroke=" none" height="17.999999999999996" width="27.999999999999996" y="128.09514383912756" x="42.72385887742845" style="" transform="matrix(-1,0.000001,-0.000001,-1,219.902725,304.423966) "/>
        <path id="path-2" fill-rule=" evenodd" stroke-miterlimit="4" stroke-linejoin=" miter" stroke-dashoffset="0" stroke-dasharray=" none" stroke-width="1.36063" stroke-linecap=" round" d="M159.17260118319496,180.25470759380505 L177.17260118319496,180.25468959380507 C177.23560592219496,184.99368953080506 175.36561048319493,189.55469140080507 171.99461381419496,192.88569477180505 C171.93961387019493,192.94169482680508 171.88461392519497,192.99669488180504 171.82861398119496,193.05269493780506 C168.45361744919495,196.52069831280505 164.23461918319495,198.25470253180507 159.17261918319497,198.25470759380505 L87.17261918319497,198.25477959380507 L87.17260118319496,180.25477959380507 L159.17260118319496,180.25470759380505 z" style=""/>
      </g>
      <path d="M98.57007890919495,85.02494309080507 L98.57007890919495,83.47094309080506 Q102.49007890919495,87.40894309080505 106.43707890919495,88.95394309080507 Q110.38507890919496,90.49894309080506 115.40707890919495,90.49894309080506 Q121.18907890919496,90.49894309080506 125.07307890919495,88.70094309080505 Q128.95707890919496,86.90294309080505 132.24507890919494,83.47094309080506 L132.24507890919494,85.02494309080507 Q127.81907890919496,90.62494309080506 123.81707890919495,93.17194309080506 Q119.81607890919496,95.71994309080506 115.51607890919496,95.71994309080506 Q111.16207890919495,95.71994309080506 107.18707890919495,93.26294309080507 Q103.21307890919496,90.80594309080507 98.57007890919495,85.02494309080507 z" style="fill: rgb(204, 56, 53); white-space: pre;" id="svg_13"/>
    </g><g id="svg_14" class="">
      <path d="M273.67114090919495,180.25085909080505 L327.67114090919495,180.25085909080505 L327.67114090919495,162.25085909080505 L291.67114090919495,162.25085909080505 L291.67114090919495,144.25085909080505 L345.67114090919495,144.25085909080505 L345.67114090919495,180.25085909080505 Q345.67114090919495,187.56285909080506 340.32714090919495,192.90685909080506 Q335.1241409091949,198.25085909080505 327.67114090919495,198.25085909080505 L273.67114090919495,198.25085909080505 Q266.218140909195,198.25085909080505 260.8741409091949,192.90685909080506 Q255.67114090919495,187.70385909080505 255.67114090919495,180.25085909080505 L255.67114090919495,126.25085909080505 Q255.67114090919495,118.79785909080505 261.01514090919494,113.45385909080505 Q266.07714090919495,108.25085909080505 273.67114090919495,108.25085909080505 L345.67114090919495,108.25085909080505 L345.67114090919495,126.25085909080505 L273.67114090919495,126.25085909080505 z" style="white-space: pre;" id="svg_15"/>
      <path d="M364.867140909195,198.25085909080505 L364.867140909195,108.25085909080505 L382.867140909195,108.25085909080505 L382.867140909195,198.25085909080505 z" style="white-space: pre;" id="svg_16"/>
      <path d="M448.0521409091949,198.25085909080505 Q440.4581409091949,198.25085909080505 437.22414090919494,193.68085909080506 Q433.98914090919493,189.10985909080506 430.0521409091949,180.25085909080505 L402.06814090919494,108.25085909080505 L420.06814090919494,108.25085909080505 L448.0521409091949,180.25085909080505 L474.06814090919494,108.25085909080505 L492.06814090919494,108.25085909080505 L466.0521409091949,180.25085909080505 Q462.25514090919495,189.95385909080505 458.81014090919496,194.10285909080505 Q455.36414090919493,198.25085909080505 448.0521409091949,198.25085909080505 z" style="white-space: pre;" id="svg_17"/>
      <path d="M583.272140909195,144.25085909080505 L583.272140909195,126.25085909080505 L529.272140909195,126.25085909080505 L529.272140909195,144.25085909080505 zM511.27214090919495,198.25085909080505 L511.27214090919495,126.25085909080505 Q511.27214090919495,118.79785909080505 516.4761409091949,113.59485909080506 Q521.819140909195,108.25085909080505 529.272140909195,108.25085909080505 L583.272140909195,108.25085909080505 Q590.7261409091949,108.25085909080505 595.929140909195,113.59485909080506 Q601.272140909195,118.93785909080505 601.272140909195,126.25085909080505 L601.272140909195,198.25085909080505 L583.272140909195,198.25085909080505 L583.272140909195,162.25085909080505 L529.272140909195,162.25085909080505 L529.272140909195,198.25085909080505 z" style="white-space: pre; fill: rgb(36, 161, 186);" id="svg_18"/>
      <path d="M692.473140909195,180.25085909080505 L692.473140909195,162.25085909080505 L638.473140909195,162.25085909080505 L638.473140909195,180.25085909080505 zM692.473140909195,144.25085909080505 L692.473140909195,126.25085909080505 L638.473140909195,126.25085909080505 L638.473140909195,144.25085909080505 zM620.473140909195,198.25085909080505 L620.473140909195,108.25085909080505 L692.473140909195,108.25085909080505 Q699.9261409091949,108.25085909080505 705.1291409091949,113.59485909080506 Q710.473140909195,118.93785909080505 710.473140909195,126.25085909080505 L710.473140909195,180.25085909080505 Q710.473140909195,187.84485909080504 705.1291409091949,193.04785909080505 Q699.786140909195,198.25085909080505 692.473140909195,198.25085909080505 z" style="white-space: pre;" id="svg_19"/>
      <path d="M729.669140909195,198.25085909080505 L729.669140909195,108.25085909080505 L747.669140909195,108.25085909080505 L747.669140909195,198.25085909080505 z" style="white-space: pre;" id="svg_20"/>
      <path d="M802.8691409091949,198.25085909080505 L802.8691409091949,126.25085909080505 L766.8691409091949,126.25085909080505 L766.8691409091949,108.25085909080505 L856.8691409091949,108.25085909080505 L856.8691409091949,126.25085909080505 L820.8691409091949,126.25085909080505 L820.8691409091949,198.25085909080505 z" style="white-space: pre;" id="svg_21"/>
    </g></g></g></svg>